<?xml version="1.0" encoding="UTF-8"?>
<svg version="1.1" xmlns="http://www.w3.org/2000/svg" width="108" height="79">
<path d="M0 0 C35.64 0 71.28 0 108 0 C108 26.07 108 52.14 108 79 C72.36 79 36.72 79 0 79 C0 52.93 0 26.86 0 0 Z " fill="#FDFDFD" transform="translate(0,0)"/>
<path d="M0 0 C17.16 0 34.32 0 52 0 C52 24.09 52 48.18 52 73 C34.84 73 17.68 73 0 73 C0 48.91 0 24.82 0 0 Z " fill="#11100E" transform="translate(53,2)"/>
<path d="M0 0 C5.4759375 -0.0928125 5.4759375 -0.0928125 11.0625 -0.1875 C12.76805054 -0.22846802 12.76805054 -0.22846802 14.50805664 -0.27026367 C20.45216167 -0.31886163 24.81605934 -0.0175177 30 3 C32.68773977 7.03160965 32.67415933 10.26423878 32 15 C29.63913708 19.10965026 27.46253872 20.63577281 23 22 C20.19006055 22.13760722 17.48998076 22.19011573 14.6875 22.125 C13.94693359 22.11597656 13.20636719 22.10695313 12.44335938 22.09765625 C10.62876533 22.07424213 8.81433929 22.03837615 7 22 C7 25.96 7 29.92 7 34 C4.69 34 2.38 34 0 34 C0 22.78 0 11.56 0 0 Z " fill="#0B0B0B" transform="translate(11,20)"/>
<path d="M0 0 C9.24 0 18.48 0 28 0 C28 1.98 28 3.96 28 6 C21.07 6 14.14 6 7 6 C7 8.64 7 11.28 7 14 C13.6 14 20.2 14 27 14 C27 15.98 27 17.96 27 20 C20.4 20 13.8 20 7 20 C7 22.64 7 25.28 7 28 C13.93 28 20.86 28 28 28 C28 29.98 28 31.96 28 34 C18.76 34 9.52 34 0 34 C0 22.78 0 11.56 0 0 Z " fill="#F4F4F4" transform="translate(68,20)"/>
<path d="M0 0 C2.62527189 -0.05382106 5.24944713 -0.09358313 7.875 -0.125 C8.62136719 -0.14175781 9.36773437 -0.15851562 10.13671875 -0.17578125 C12.09194461 -0.1933959 14.04742021 -0.10320189 16 0 C18 2 18 2 18.3125 5 C18.209375 5.99 18.10625 6.98 18 8 C14.31912647 10.45391569 11.55644412 10.22802759 7.3125 10.125 C6.2596582 10.11146484 6.2596582 10.11146484 5.18554688 10.09765625 C3.45688475 10.07413704 1.72839855 10.03826713 0 10 C0 6.7 0 3.4 0 0 Z " fill="#FDFDFD" transform="translate(18,26)"/>
</svg>
